<?xml version="1.0" standalone="no"?>
<!DOCTYPE svg PUBLIC "-//W3C//DTD SVG 20010904//EN"
 "http://www.w3.org/TR/2001/REC-SVG-20010904/DTD/svg10.dtd">
<svg version="1.0" xmlns="http://www.w3.org/2000/svg"
 width="593.000000pt" height="383.000000pt" viewBox="0 0 593.000000 383.000000"
 preserveAspectRatio="xMidYMid meet">

<g transform="translate(0.000000,383.000000) scale(0.100000,-0.100000)"
fill="#000000" stroke="none">
<path d="M1750 3644 c-122 -16 -273 -49 -377 -84 -538 -180 -949 -582 -1151
-1125 -23 -63 -62 -216 -79 -311 -26 -153 -24 -474 6 -614 70 -334 187 -586
388 -832 81 -99 246 -254 353 -331 108 -76 333 -192 461 -236 113 -39 299 -80
402 -89 45 -4 -332 -9 -838 -12 -506 -3 416 -5 2050 -5 2604 0 2730 1 1025 5
-1070 3 -1911 8 -1870 12 190 17 445 90 625 180 96 47 317 187 330 209 4 5
-24 -9 -62 -32 -155 -96 -351 -171 -557 -215 -149 -32 -454 -43 -600 -22 l-89
13 -3 35 c-7 64 -25 153 -84 422 -81 367 -90 421 -97 594 -9 226 8 337 102
679 59 216 68 328 37 431 -41 133 -136 255 -276 355 -38 27 -64 49 -59 49 6 0
51 -18 99 -40 48 -23 142 -59 208 -82 118 -40 120 -40 235 -36 96 4 136 11
231 41 128 40 318 131 485 232 128 78 424 280 475 325 l35 30 -30 -11 c-16 -5
-169 -82 -340 -169 -170 -87 -353 -177 -405 -200 -298 -132 -294 -130 -302
-107 -3 6 3 50 13 97 20 97 24 198 9 252 -16 58 -69 120 -121 141 -111 46
-220 -45 -255 -214 -13 -60 -13 -85 -4 -133 26 -131 52 -137 62 -15 13 164 65
269 134 269 42 0 76 -42 99 -124 32 -109 1 -222 -72 -267 -33 -21 -50 -24
-133 -23 -82 1 -110 6 -208 39 -116 39 -340 143 -491 229 -46 26 -115 64 -154
83 l-71 36 39 33 c265 226 568 362 920 415 140 21 404 17 558 -9 210 -36 433
-118 600 -220 81 -51 96 -54 36 -9 -216 164 -496 288 -763 338 -83 16 -159 22
-301 24 -104 2 -206 1 -225 -1z m-807 -639 c70 -63 86 -75 222 -157 60 -38
107 -68 104 -68 -4 0 -26 7 -49 15 -49 17 -89 20 -74 6 5 -6 46 -33 92 -60
207 -126 326 -261 367 -418 32 -121 17 -252 -60 -548 -76 -292 -92 -498 -56
-710 33 -189 97 -434 176 -670 42 -125 74 -229 73 -231 -6 -5 -114 23 -219 57
-116 37 -308 131 -414 201 -366 243 -640 640 -725 1051 -57 273 -51 527 19
797 46 179 153 400 271 559 65 88 199 233 210 229 4 -2 33 -25 63 -53z"/>
<path d="M3102 2043 c-6 -15 -18 -49 -28 -75 -9 -27 -21 -48 -25 -48 -5 0 -9
-12 -9 -26 0 -25 -76 -250 -89 -266 -4 -4 -41 88 -82 205 l-76 212 -57 3 -58
3 7 -33 c4 -18 17 -58 30 -88 12 -30 66 -176 120 -325 54 -148 101 -274 105
-278 4 -4 24 39 44 95 92 251 121 328 127 328 6 0 23 -42 116 -295 24 -66 48
-123 52 -128 6 -6 92 219 227 601 l44 122 -54 0 -55 0 -19 -52 c-10 -29 -43
-124 -73 -210 -51 -149 -64 -175 -74 -145 -2 6 -25 71 -50 142 -114 314 -107
300 -123 258z"/>
<path d="M4005 2057 c-59 -20 -84 -35 -136 -84 -64 -59 -95 -123 -108 -217
-11 -81 -10 -95 16 -188 56 -199 297 -305 482 -211 l56 29 3 73 3 73 -38 -31
c-97 -77 -232 -83 -314 -13 -138 118 -113 375 44 451 80 39 186 25 254 -33 17
-14 33 -23 37 -19 3 3 6 33 6 64 l0 59 -52 27 c-63 32 -187 41 -253 20z"/>
<path d="M4941 2009 c-16 -35 -92 -198 -170 -363 -78 -164 -141 -300 -141
-302 0 -2 26 -4 58 -4 l57 1 29 65 29 64 165 -2 164 -3 26 -62 26 -63 58 0
c32 0 58 4 58 9 0 8 -38 94 -130 296 -13 28 -60 133 -107 234 -46 102 -85 187
-88 189 -3 3 -18 -24 -34 -59z m51 -226 c11 -27 33 -77 50 -112 49 -108 51
-105 -77 -102 -60 2 -111 4 -112 5 -3 3 110 256 114 256 2 0 13 -21 25 -47z"/>
<path d="M5670 1695 l0 -355 60 0 60 0 0 355 0 355 -60 0 -60 0 0 -355z"/>
<path d="M2386 1959 c-26 -7 -74 -50 -77 -68 0 -3 -2 -37 -3 -76 -2 -65 -1
-67 7 -25 5 25 13 53 18 62 5 10 5 19 0 23 -5 3 -12 -2 -14 -10 -4 -11 -5 -10
-3 2 1 10 8 18 17 18 8 0 23 8 33 18 38 38 72 18 102 -60 20 -51 23 -54 23
-27 1 17 -6 37 -14 44 -8 7 -15 21 -15 31 0 10 -13 25 -29 34 -28 14 -33 13
-68 -6 l-38 -21 28 26 c16 15 40 26 56 26 30 0 61 -27 61 -52 0 -9 5 -18 11
-20 6 -2 14 -19 19 -38 l8 -35 1 32 c1 17 -6 39 -15 47 -8 9 -13 20 -10 25 6
9 -18 33 -49 48 -12 6 -32 7 -49 2z"/>
<path d="M2968 1873 c-27 -14 -48 -29 -48 -35 0 -5 -4 -7 -8 -4 -5 3 -9 -2 -9
-10 0 -9 6 -13 14 -9 8 3 17 5 19 5 2 0 4 7 4 15 0 8 7 15 15 15 8 0 15 5 15
11 0 5 5 7 10 4 6 -3 10 -1 10 4 0 6 6 11 14 11 8 0 18 5 21 10 10 16 -6 11
-57 -17z"/>
<path d="M1840 1850 c31 -30 67 -55 80 -56 6 -1 11 -2 13 -4 1 -1 9 -3 19 -5
9 -2 24 -8 35 -14 16 -11 16 -11 -4 -6 -36 10 -27 -3 15 -21 40 -18 83 -24 76
-12 -3 4 -15 8 -27 8 -27 0 -62 19 -37 20 20 1 -70 49 -93 50 -10 0 -20 7 -23
15 -4 8 -10 12 -15 9 -5 -3 -9 0 -9 5 0 6 -5 11 -12 11 -6 0 -19 6 -28 13 -9
6 -4 1 10 -13z"/>
<path d="M2492 1755 c0 -16 2 -22 5 -12 2 9 2 23 0 30 -3 6 -5 -1 -5 -18z"/>
<path d="M2740 1755 c0 -8 4 -15 10 -15 5 0 7 7 4 15 -4 8 -8 15 -10 15 -2 0
-4 -7 -4 -15z"/>
<path d="M2300 1725 c0 -8 2 -15 4 -15 2 0 6 7 10 15 3 8 1 15 -4 15 -6 0 -10
-7 -10 -15z"/>
<path d="M2673 1728 c-27 -13 -30 -30 -5 -26 9 2 16 -2 15 -9 -3 -14 53 3 63
19 15 24 -35 34 -73 16z m57 -6 c0 -4 -9 -8 -20 -9 -11 -1 -20 2 -20 8 0 5 9
9 20 9 11 0 20 -4 20 -8z"/>
<path d="M2020 1693 c25 -14 52 -32 61 -39 19 -17 29 -18 29 -4 0 6 -4 10 -10
10 -5 0 -31 14 -57 30 -26 17 -52 30 -57 30 -6 0 9 -12 34 -27z"/>
<path d="M2103 1705 c0 -9 6 -14 12 -11 14 5 80 -16 92 -29 5 -4 -5 -5 -22 -1
l-30 6 25 -15 c29 -17 44 -19 35 -5 -3 6 -1 10 5 10 23 0 -1 19 -43 33 -23 8
-49 18 -58 21 -10 5 -16 2 -16 -9z"/>
<path d="M2470 1711 c0 -6 5 -13 10 -16 6 -3 10 1 10 9 0 9 -4 16 -10 16 -5 0
-10 -4 -10 -9z"/>
<path d="M2437 1685 c-10 -14 -24 -25 -32 -25 -8 0 -16 -4 -19 -8 -2 -4 12 -8
32 -8 20 1 48 -2 62 -6 20 -6 20 -5 -3 4 -24 10 -27 16 -22 40 8 34 5 34 -18
3z"/>
<path d="M2598 1694 c-24 -12 -38 -34 -24 -34 15 0 35 14 30 21 -3 5 2 9 10 9
8 0 18 5 21 10 9 14 -5 12 -37 -6z"/>
<path d="M2650 1681 c0 -6 -19 -16 -41 -23 -36 -10 -43 -10 -54 5 -6 9 -15 14
-18 10 -4 -3 1 -12 11 -19 16 -13 15 -14 -5 -20 -13 -3 -23 -10 -23 -15 0 -9
104 27 133 47 12 8 15 14 8 19 -6 3 -11 2 -11 -4z"/>
<path d="M2489 1660 c13 -11 31 -20 40 -19 9 1 5 6 -11 12 -16 6 -28 14 -28
19 0 4 -6 8 -12 8 -7 -1 -2 -10 11 -20z"/>
<path d="M2236 1653 c-9 -23 -7 -28 6 -15 15 15 38 16 38 2 0 -5 -7 -10 -17
-10 -9 0 -14 -2 -11 -5 3 -3 29 1 59 9 37 10 46 15 29 17 -14 1 -29 1 -34 0
-5 -1 -21 2 -37 8 -22 7 -29 6 -33 -6z"/>
<path d="M2125 1629 c-4 -5 -4 -13 -1 -16 3 -4 6 0 6 7 0 13 7 1 65 -106 18
-34 25 -40 39 -32 15 8 17 7 14 -8 -2 -11 -10 -18 -16 -16 -17 3 -15 -18 3
-24 10 -4 13 -16 10 -37 l-5 -32 10 30 c5 17 8 36 5 44 -3 8 -1 17 5 21 8 5 4
20 -12 48 -31 54 -76 104 -88 97 -6 -4 -10 1 -10 9 0 19 -17 30 -25 15z m105
-111 c7 -11 7 -19 0 -23 -6 -3 -13 2 -17 12 -4 10 -17 32 -30 49 -13 17 -23
35 -23 40 1 10 54 -50 70 -78z"/>
<path d="M2305 1620 c-3 -5 -1 -10 4 -10 6 0 11 5 11 10 0 6 -2 10 -4 10 -3 0
-8 -4 -11 -10z"/>
<path d="M2353 1623 c9 -2 23 -2 30 0 6 3 -1 5 -18 5 -16 0 -22 -2 -12 -5z"/>
<path d="M2395 1611 c-3 -5 0 -13 6 -17 7 -4 9 -3 5 4 -3 6 2 13 11 15 16 4
16 5 1 6 -9 0 -19 -3 -23 -8z"/>
<path d="M2458 1613 c6 -2 18 -2 25 0 6 3 1 5 -13 5 -14 0 -19 -2 -12 -5z"/>
<path d="M2358 1593 c7 -3 16 -2 19 1 4 3 -2 6 -13 5 -11 0 -14 -3 -6 -6z"/>
<path d="M2271 1425 c-1 -16 -4 -41 -7 -55 l-5 -25 15 26 c11 19 13 34 6 55
l-8 29 -1 -30z"/>
<path d="M3526 1428 c-9 -12 -16 -30 -16 -38 0 -21 41 -60 63 -60 25 0 57 36
57 63 0 53 -75 77 -104 35z"/>
<path d="M4456 1428 c-9 -12 -16 -30 -16 -40 0 -24 35 -58 60 -58 27 0 60 35
60 63 0 53 -75 77 -104 35z"/>
<path d="M5396 1434 c-43 -43 5 -120 60 -95 59 27 42 110 -23 111 -12 0 -29
-7 -37 -16z"/>
<path d="M2231 1332 c0 -12 6 -34 15 -47 16 -24 11 -70 -7 -60 -5 4 -9 -3 -9
-14 0 -13 5 -19 14 -15 17 7 39 83 33 115 -3 18 -5 15 -6 -11 l-1 -35 -14 27
c-8 15 -16 35 -19 45 -4 14 -5 13 -6 -5z"/>
<path d="M2211 1224 c0 -11 3 -14 6 -6 3 7 2 16 -1 19 -3 4 -6 -2 -5 -13z"/>
<path d="M2201 1173 c0 -6 -4 -20 -7 -30 -5 -14 -4 -15 5 -7 7 7 11 20 8 30
-3 11 -5 14 -6 7z"/>
<path d="M2185 1108 c-15 -45 -36 -150 -31 -155 3 -4 9 9 13 28 l7 34 13 -45
c13 -46 12 -36 -4 59 -5 25 -3 32 6 27 7 -5 10 -14 7 -22 -3 -7 -1 -16 4 -19
9 -6 35 73 27 81 -3 3 -8 -7 -11 -21 -8 -32 -26 -23 -26 13 0 19 3 23 9 14 7
-11 9 -11 14 2 4 10 1 16 -9 16 -8 0 -17 -6 -19 -12z"/>
<path d="M2162 900 c0 -19 2 -27 5 -17 2 9 2 25 0 35 -3 9 -5 1 -5 -18z"/>
<path d="M2187 903 c-4 -3 -8 -43 -8 -87 -1 -45 -4 -69 -6 -53 -4 25 -33 40
-33 17 0 -5 5 -10 10 -10 6 0 10 -8 10 -18 0 -10 6 -27 14 -38 8 -11 16 -31
19 -44 3 -18 5 -14 6 13 0 24 -3 36 -9 32 -7 -4 -9 7 -5 32 6 47 14 163 11
163 -2 0 -6 -3 -9 -7z"/>
<path d="M2172 630 c-1 -14 7 -54 18 -90 10 -36 19 -55 19 -42 1 13 5 20 11
17 6 -3 10 4 10 15 0 13 -8 24 -20 27 -12 3 -20 14 -20 27 0 17 2 18 10 6 8
-11 10 -7 8 18 -2 29 -4 31 -14 17 -11 -15 -13 -14 -17 7 -4 23 -4 22 -5 -2z
m48 -90 c0 -5 -4 -10 -10 -10 -5 0 -10 5 -10 10 0 6 5 10 10 10 6 0 10 -4 10
-10z"/>
<path d="M2228 494 c-4 -5 1 -29 9 -53 8 -24 13 -54 10 -67 -2 -13 0 -21 4
-18 5 3 9 1 9 -5 0 -5 -5 -11 -12 -13 -9 -3 -9 -6 0 -12 7 -4 15 -1 18 8 7 19
-30 174 -38 160z"/>
<path d="M2207 450 c3 -11 7 -20 9 -20 2 0 4 9 4 20 0 11 -4 20 -9 20 -5 0 -7
-9 -4 -20z"/>
<path d="M2220 410 c0 -8 5 -22 10 -30 9 -13 10 -13 10 0 0 8 -5 22 -10 30 -9
13 -10 13 -10 0z"/>
<path d="M2271 285 c1 -25 27 -106 28 -85 0 8 -6 35 -13 60 -8 25 -15 36 -15
25z"/>
</g>
</svg>
